<?xml version="1.0" encoding="iso-8859-1"?><!DOCTYPE svg PUBLIC "-//W3C//DTD SVG 1.1//EN" "http://www.w3.org/Graphics/SVG/1.1/DTD/svg11.dtd"><svg xmlns="http://www.w3.org/2000/svg" xmlns:xlink="http://www.w3.org/1999/xlink"><symbol fill="currentColor" viewBox="0 0 482.141 482.141" xml:space="preserve" id="css" xmlns="http://www.w3.org/2000/svg"><path d="M315.458 0H121.812c-28.29 0-51.316 23.041-51.316 51.316V241.07h-5.013c-11.418 0-20.676 9.25-20.676 20.677v125.404c0 11.427 9.258 20.679 20.676 20.679h5.013v22.994c0 28.306 23.027 51.316 51.316 51.316h264.223c28.273 0 51.3-23.011 51.3-51.316V121.449L315.458 0zM143.567 355.205c5.935 0 12.515-1.291 16.393-2.835l2.961 15.349c-3.609 1.813-11.741 3.753-22.316 3.753-30.069 0-45.554-18.708-45.554-43.484 0-29.676 21.165-46.193 47.486-46.193 10.196 0 17.935 2.064 21.417 3.862l-3.994 15.617c-4.004-1.686-9.551-3.229-16.518-3.229-15.619 0-27.746 9.423-27.746 28.778 0 17.414 10.323 28.382 27.871 28.382zm242.467 95.508H121.812c-10.954 0-19.875-8.92-19.875-19.889V407.83h246.31c11.42 0 20.679-9.252 20.679-20.679V261.747c0-11.427-9.259-20.677-20.679-20.677h-246.31V51.316c0-10.939 8.921-19.859 19.875-19.859l181.89-.189v67.233c0 19.637 15.934 35.587 35.587 35.587l65.861-.188.741 296.924c0 10.969-8.904 19.889-19.857 19.889zM197.548 333.662c-14.454-5.027-23.877-13.033-23.877-25.674 0-14.848 12.386-26.194 32.906-26.194 9.803 0 17.038 2.064 22.191 4.382l-4.382 15.871c-3.482-1.671-9.677-4.131-18.195-4.131s-12.647 3.879-12.647 8.387c0 5.547 4.901 8.006 16.13 12.26 15.359 5.675 22.584 13.681 22.584 25.943 0 14.577-11.229 26.966-35.098 26.966-9.937 0-19.747-2.585-24.648-5.297l4.002-16.249c5.289 2.712 13.421 5.407 21.805 5.407 9.031 0 13.806-3.736 13.806-9.411.001-5.42-4.128-8.525-14.577-12.26zm69.716 0c-14.452-5.027-23.877-13.033-23.877-25.674 0-14.848 12.388-26.194 32.906-26.194 9.813 0 17.029 2.064 22.199 4.382l-4.388 15.871c-3.484-1.671-9.677-4.131-18.196-4.131-8.518 0-12.647 3.879-12.647 8.387 0 5.547 4.901 8.006 16.131 12.26 15.358 5.675 22.586 13.681 22.586 25.943 0 14.577-11.229 26.966-35.099 26.966-9.938 0-19.749-2.585-24.65-5.297l4.004-16.249c5.287 2.712 13.419 5.407 21.803 5.407 9.031 0 13.807-3.736 13.807-9.411-.001-5.42-4.131-8.525-14.579-12.26z"/></symbol><symbol fill="currentColor" viewBox="0 0 482.141 482.141" xml:space="preserve" id="css" xmlns="http://www.w3.org/2000/svg"><path d="M315.458 0H121.812c-28.29 0-51.316 23.041-51.316 51.316V241.07h-5.013c-11.418 0-20.676 9.25-20.676 20.677v125.404c0 11.427 9.258 20.679 20.676 20.679h5.013v22.994c0 28.306 23.027 51.316 51.316 51.316h264.223c28.273 0 51.3-23.011 51.3-51.316V121.449L315.458 0zM143.567 355.205c5.935 0 12.515-1.291 16.393-2.835l2.961 15.349c-3.609 1.813-11.741 3.753-22.316 3.753-30.069 0-45.554-18.708-45.554-43.484 0-29.676 21.165-46.193 47.486-46.193 10.196 0 17.935 2.064 21.417 3.862l-3.994 15.617c-4.004-1.686-9.551-3.229-16.518-3.229-15.619 0-27.746 9.423-27.746 28.778 0 17.414 10.323 28.382 27.871 28.382zm242.467 95.508H121.812c-10.954 0-19.875-8.92-19.875-19.889V407.83h246.31c11.42 0 20.679-9.252 20.679-20.679V261.747c0-11.427-9.259-20.677-20.679-20.677h-246.31V51.316c0-10.939 8.921-19.859 19.875-19.859l181.89-.189v67.233c0 19.637 15.934 35.587 35.587 35.587l65.861-.188.741 296.924c0 10.969-8.904 19.889-19.857 19.889zM197.548 333.662c-14.454-5.027-23.877-13.033-23.877-25.674 0-14.848 12.386-26.194 32.906-26.194 9.803 0 17.038 2.064 22.191 4.382l-4.382 15.871c-3.482-1.671-9.677-4.131-18.195-4.131s-12.647 3.879-12.647 8.387c0 5.547 4.901 8.006 16.13 12.26 15.359 5.675 22.584 13.681 22.584 25.943 0 14.577-11.229 26.966-35.098 26.966-9.937 0-19.747-2.585-24.648-5.297l4.002-16.249c5.289 2.712 13.421 5.407 21.805 5.407 9.031 0 13.806-3.736 13.806-9.411.001-5.42-4.128-8.525-14.577-12.26zm69.716 0c-14.452-5.027-23.877-13.033-23.877-25.674 0-14.848 12.388-26.194 32.906-26.194 9.813 0 17.029 2.064 22.199 4.382l-4.388 15.871c-3.484-1.671-9.677-4.131-18.196-4.131-8.518 0-12.647 3.879-12.647 8.387 0 5.547 4.901 8.006 16.131 12.26 15.358 5.675 22.586 13.681 22.586 25.943 0 14.577-11.229 26.966-35.099 26.966-9.938 0-19.749-2.585-24.65-5.297l4.004-16.249c5.287 2.712 13.419 5.407 21.803 5.407 9.031 0 13.807-3.736 13.807-9.411-.001-5.42-4.131-8.525-14.579-12.26z"/></symbol><symbol viewBox="0 0 64 64" xml:space="preserve" id="envelope" xmlns="http://www.w3.org/2000/svg"><path fill="currentColor" d="M60 8H4c-2.211 0-4 1.789-4 4v40c0 2.211 1.789 4 4 4h56c2.211 0 4-1.789 4-4V12c0-2.211-1.789-4-4-4zM4 10h56a2 2 0 0 1 2 2v2.469L32 36.754 2 14.469V12a2 2 0 0 1 2-2zm56 44H4a2 2 0 0 1-2-2v-2.808l18.584-13.381a1 1 0 0 0-1.168-1.624L2 46.729V16.961l29.403 21.842a.998.998 0 0 0 1.194 0L62 16.961v29.768l-17.416-12.54a1 1 0 1 0-1.168 1.624L62 49.192V52a2 2 0 0 1-2 2z"/></symbol><symbol viewBox="0 0 64 64" xml:space="preserve" id="envelope" xmlns="http://www.w3.org/2000/svg"><path fill="currentColor" d="M60 8H4c-2.211 0-4 1.789-4 4v40c0 2.211 1.789 4 4 4h56c2.211 0 4-1.789 4-4V12c0-2.211-1.789-4-4-4zM4 10h56a2 2 0 0 1 2 2v2.469L32 36.754 2 14.469V12a2 2 0 0 1 2-2zm56 44H4a2 2 0 0 1-2-2v-2.808l18.584-13.381a1 1 0 0 0-1.168-1.624L2 46.729V16.961l29.403 21.842a.998.998 0 0 0 1.194 0L62 16.961v29.768l-17.416-12.54a1 1 0 1 0-1.168 1.624L62 49.192V52a2 2 0 0 1-2 2z"/></symbol><symbol viewBox="0 0 24 24" fill="none" id="github" xmlns="http://www.w3.org/2000/svg"><path clip-rule="evenodd" d="M12 2C6.475 2 2 6.475 2 12a9.994 9.994 0 0 0 6.838 9.488c.5.087.687-.213.687-.476 0-.237-.013-1.024-.013-1.862-2.512.463-3.162-.612-3.362-1.175-.113-.288-.6-1.175-1.025-1.413-.35-.187-.85-.65-.013-.662.788-.013 1.35.725 1.538 1.025.9 1.512 2.338 1.087 2.912.825.088-.65.35-1.087.638-1.337-2.225-.25-4.55-1.113-4.55-4.938 0-1.088.387-1.987 1.025-2.688-.1-.25-.45-1.275.1-2.65 0 0 .837-.262 2.75 1.026a9.28 9.28 0 0 1 2.5-.338c.85 0 1.7.112 2.5.337 1.912-1.3 2.75-1.024 2.75-1.024.55 1.375.2 2.4.1 2.65.637.7 1.025 1.587 1.025 2.687 0 3.838-2.337 4.688-4.562 4.938.362.312.675.912.675 1.85 0 1.337-.013 2.412-.013 2.75 0 .262.188.574.688.474A10.016 10.016 0 0 0 22 12c0-5.525-4.475-10-10-10Z" stroke="currentColor" stroke-linejoin="round"/></symbol><symbol viewBox="0 0 24 24" fill="none" id="github" xmlns="http://www.w3.org/2000/svg"><path clip-rule="evenodd" d="M12 2C6.475 2 2 6.475 2 12a9.994 9.994 0 0 0 6.838 9.488c.5.087.687-.213.687-.476 0-.237-.013-1.024-.013-1.862-2.512.463-3.162-.612-3.362-1.175-.113-.288-.6-1.175-1.025-1.413-.35-.187-.85-.65-.013-.662.788-.013 1.35.725 1.538 1.025.9 1.512 2.338 1.087 2.912.825.088-.65.35-1.087.638-1.337-2.225-.25-4.55-1.113-4.55-4.938 0-1.088.387-1.987 1.025-2.688-.1-.25-.45-1.275.1-2.65 0 0 .837-.262 2.75 1.026a9.28 9.28 0 0 1 2.5-.338c.85 0 1.7.112 2.5.337 1.912-1.3 2.75-1.024 2.75-1.024.55 1.375.2 2.4.1 2.65.637.7 1.025 1.587 1.025 2.687 0 3.838-2.337 4.688-4.562 4.938.362.312.675.912.675 1.85 0 1.337-.013 2.412-.013 2.75 0 .262.188.574.688.474A10.016 10.016 0 0 0 22 12c0-5.525-4.475-10-10-10Z" stroke="currentColor" stroke-linejoin="round"/></symbol><symbol fill="currentColor" viewBox="0 0 550.801 550.801" xml:space="preserve" id="html" xmlns="http://www.w3.org/2000/svg"><path d="M475.095 131.986c-.032-2.525-.844-5.015-2.568-6.992L366.324 3.684c-.021-.029-.053-.045-.084-.071-.633-.712-1.36-1.289-2.141-1.803a10.984 10.984 0 0 0-2.838-1.313c-.2-.058-.379-.145-.59-.188A10.474 10.474 0 0 0 358.203 0H97.2C85.292 0 75.6 9.688 75.6 21.601v507.6c0 11.907 9.692 21.601 21.6 21.601h356.4c11.908 0 21.601-9.693 21.601-21.601V133.197c-.001-.406-.064-.804-.106-1.211zM97.2 21.601h250.203v110.51c0 5.962 4.831 10.8 10.8 10.8H453.6l.011 223.837H97.2V21.601zm83.257 477.71h-21.642v-41.26h-35.744v41.26h-21.769v-98.613h21.769v37.895h35.744v-37.895h21.642v98.613zm85.417-79.882h-26.188v79.882h-21.779v-79.882h-25.763v-18.731h73.73v18.731zm93.542 79.882-1.424-37.747c-.422-11.85-.854-26.188-.854-40.532h-.422c-2.996 12.583-6.982 26.631-10.685 38.19l-11.665 38.476H317.43l-10.252-38.18c-3.133-11.56-6.412-25.608-8.69-38.486h-.285c-.564 13.321-1.002 28.535-1.692 40.827l-1.72 37.457h-20.07l6.117-98.613h28.903l9.397 32.917c2.995 11.412 5.975 23.704 8.121 35.264h.422c2.711-11.417 5.975-24.427 9.112-35.406l10.252-32.774h28.329l5.263 98.613h-21.221v-.006zm97.822 0H397.3v-98.613h21.779v79.882h38.153v18.731h.006z"/><path d="m154.132 249.086 82.74 38.437v-18.269l-62.577-27.403v-.346l62.577-27.411v-18.267l-82.74 38.435zM249.642 294.416h17.405l36.883-124.964h-17.403zM313.938 214.094l63.957 27.411v.346l-63.957 27.403v18.269l82.73-37.918v-15.86l-82.73-37.918z"/></symbol><symbol fill="currentColor" viewBox="0 0 550.801 550.801" xml:space="preserve" id="html" xmlns="http://www.w3.org/2000/svg"><path d="M475.095 131.986c-.032-2.525-.844-5.015-2.568-6.992L366.324 3.684c-.021-.029-.053-.045-.084-.071-.633-.712-1.36-1.289-2.141-1.803a10.984 10.984 0 0 0-2.838-1.313c-.2-.058-.379-.145-.59-.188A10.474 10.474 0 0 0 358.203 0H97.2C85.292 0 75.6 9.688 75.6 21.601v507.6c0 11.907 9.692 21.601 21.6 21.601h356.4c11.908 0 21.601-9.693 21.601-21.601V133.197c-.001-.406-.064-.804-.106-1.211zM97.2 21.601h250.203v110.51c0 5.962 4.831 10.8 10.8 10.8H453.6l.011 223.837H97.2V21.601zm83.257 477.71h-21.642v-41.26h-35.744v41.26h-21.769v-98.613h21.769v37.895h35.744v-37.895h21.642v98.613zm85.417-79.882h-26.188v79.882h-21.779v-79.882h-25.763v-18.731h73.73v18.731zm93.542 79.882-1.424-37.747c-.422-11.85-.854-26.188-.854-40.532h-.422c-2.996 12.583-6.982 26.631-10.685 38.19l-11.665 38.476H317.43l-10.252-38.18c-3.133-11.56-6.412-25.608-8.69-38.486h-.285c-.564 13.321-1.002 28.535-1.692 40.827l-1.72 37.457h-20.07l6.117-98.613h28.903l9.397 32.917c2.995 11.412 5.975 23.704 8.121 35.264h.422c2.711-11.417 5.975-24.427 9.112-35.406l10.252-32.774h28.329l5.263 98.613h-21.221v-.006zm97.822 0H397.3v-98.613h21.779v79.882h38.153v18.731h.006z"/><path d="m154.132 249.086 82.74 38.437v-18.269l-62.577-27.403v-.346l62.577-27.411v-18.267l-82.74 38.435zM249.642 294.416h17.405l36.883-124.964h-17.403zM313.938 214.094l63.957 27.411v.346l-63.957 27.403v18.269l82.73-37.918v-15.86l-82.73-37.918z"/></symbol><symbol viewBox="0 0 24 24" fill="none" id="javascript" xmlns="http://www.w3.org/2000/svg"><path fill-rule="evenodd" clip-rule="evenodd" d="M9.293 1.293A1 1 0 0 1 10 1h8a3 3 0 0 1 3 3v5a1 1 0 1 1-2 0V4a1 1 0 0 0-1-1h-7v5a1 1 0 0 1-1 1H5v11a1 1 0 0 0 1 1h1a1 1 0 1 1 0 2H6a3 3 0 0 1-3-3V8a1 1 0 0 1 .293-.707l6-6ZM6.414 7H9V4.414L6.414 7ZM16 14.75A2.75 2.75 0 0 1 18.75 12H21a1 1 0 1 1 0 2h-2.25a.75.75 0 0 0 0 1.5h.5a2.75 2.75 0 1 1 0 5.5H17a1 1 0 1 1 0-2h2.25a.75.75 0 0 0 0-1.5h-.5A2.75 2.75 0 0 1 16 14.75ZM15 13a1 1 0 1 0-2 0v5a1 1 0 1 1-2 0v-.333a1 1 0 1 0-2 0V18a3 3 0 1 0 6 0v-5Z" fill="currentColor"/></symbol><symbol viewBox="0 0 24 24" fill="none" id="javascript" xmlns="http://www.w3.org/2000/svg"><path fill-rule="evenodd" clip-rule="evenodd" d="M9.293 1.293A1 1 0 0 1 10 1h8a3 3 0 0 1 3 3v5a1 1 0 1 1-2 0V4a1 1 0 0 0-1-1h-7v5a1 1 0 0 1-1 1H5v11a1 1 0 0 0 1 1h1a1 1 0 1 1 0 2H6a3 3 0 0 1-3-3V8a1 1 0 0 1 .293-.707l6-6ZM6.414 7H9V4.414L6.414 7ZM16 14.75A2.75 2.75 0 0 1 18.75 12H21a1 1 0 1 1 0 2h-2.25a.75.75 0 0 0 0 1.5h.5a2.75 2.75 0 1 1 0 5.5H17a1 1 0 1 1 0-2h2.25a.75.75 0 0 0 0-1.5h-.5A2.75 2.75 0 0 1 16 14.75ZM15 13a1 1 0 1 0-2 0v5a1 1 0 1 1-2 0v-.333a1 1 0 1 0-2 0V18a3 3 0 1 0 6 0v-5Z" fill="currentColor"/></symbol><symbol viewBox="0 0 24 24" fill="none" id="linkedin" xmlns="http://www.w3.org/2000/svg"><path d="M22 3.47v17.06A1.47 1.47 0 0 1 20.53 22H3.47A1.47 1.47 0 0 1 2 20.53V3.47A1.47 1.47 0 0 1 3.47 2h17.06A1.47 1.47 0 0 1 22 3.47ZM7.882 9.648h-2.94v9.412h2.94V9.647Zm.265-3.235a1.694 1.694 0 0 0-1.682-1.706h-.053a1.706 1.706 0 0 0 0 3.412 1.694 1.694 0 0 0 1.735-1.653v-.053Zm10.912 6.93c0-2.83-1.8-3.93-3.588-3.93a3.353 3.353 0 0 0-2.977 1.517h-.082V9.647H9.647v9.412h2.941v-5.006a1.953 1.953 0 0 1 1.765-2.106h.112c.935 0 1.63.588 1.63 2.07v5.042h2.94l.024-5.718Z" stroke="currentColor" stroke-linejoin="round"/></symbol><symbol viewBox="0 0 24 24" fill="none" id="linkedin" xmlns="http://www.w3.org/2000/svg"><path d="M22 3.47v17.06A1.47 1.47 0 0 1 20.53 22H3.47A1.47 1.47 0 0 1 2 20.53V3.47A1.47 1.47 0 0 1 3.47 2h17.06A1.47 1.47 0 0 1 22 3.47ZM7.882 9.648h-2.94v9.412h2.94V9.647Zm.265-3.235a1.694 1.694 0 0 0-1.682-1.706h-.053a1.706 1.706 0 0 0 0 3.412 1.694 1.694 0 0 0 1.735-1.653v-.053Zm10.912 6.93c0-2.83-1.8-3.93-3.588-3.93a3.353 3.353 0 0 0-2.977 1.517h-.082V9.647H9.647v9.412h2.941v-5.006a1.953 1.953 0 0 1 1.765-2.106h.112c.935 0 1.63.588 1.63 2.07v5.042h2.94l.024-5.718Z" stroke="currentColor" stroke-linejoin="round"/></symbol><symbol viewBox="0 0 64 64" xml:space="preserve" id="location" xmlns="http://www.w3.org/2000/svg"><g fill="currentColor"><path d="M32 0C18.745 0 8 10.745 8 24c0 5.678 2.502 10.671 5.271 15l17.097 24.156a2 2 0 0 0 3.264 0L50.729 39C53.375 35.438 56 29.678 56 24 56 10.745 45.255 0 32 0zm16.087 39h-.01L32 61 15.923 39h-.01C13.469 35.469 10 29.799 10 24c0-12.15 9.85-22 22-22s22 9.85 22 22c0 5.799-3.719 11.781-5.913 15z"/><path d="M32 14c-5.523 0-10 4.478-10 10s4.477 10 10 10 10-4.478 10-10-4.477-10-10-10zm0 18a8 8 0 1 1 0-16 8 8 0 0 1 0 16z"/><path d="M32 10c-7.732 0-14 6.268-14 14s6.268 14 14 14 14-6.268 14-14-6.268-14-14-14zm0 26c-6.627 0-12-5.373-12-12s5.373-12 12-12 12 5.373 12 12-5.373 12-12 12z"/></g></symbol><symbol viewBox="0 0 64 64" xml:space="preserve" id="location" xmlns="http://www.w3.org/2000/svg"><g fill="currentColor"><path d="M32 0C18.745 0 8 10.745 8 24c0 5.678 2.502 10.671 5.271 15l17.097 24.156a2 2 0 0 0 3.264 0L50.729 39C53.375 35.438 56 29.678 56 24 56 10.745 45.255 0 32 0zm16.087 39h-.01L32 61 15.923 39h-.01C13.469 35.469 10 29.799 10 24c0-12.15 9.85-22 22-22s22 9.85 22 22c0 5.799-3.719 11.781-5.913 15z"/><path d="M32 14c-5.523 0-10 4.478-10 10s4.477 10 10 10 10-4.478 10-10-4.477-10-10-10zm0 18a8 8 0 1 1 0-16 8 8 0 0 1 0 16z"/><path d="M32 10c-7.732 0-14 6.268-14 14s6.268 14 14 14 14-6.268 14-14-6.268-14-14-14zm0 26c-6.627 0-12-5.373-12-12s5.373-12 12-12 12 5.373 12 12-5.373 12-12 12z"/></g></symbol><symbol viewBox="0 0 16 16" id="other" xmlns="http://www.w3.org/2000/svg"><path d="M12.5.023a3.378 3.378 0 0 0-.883.094C9.75.605 8.633 2.5 9.121 4.352a3.5 3.5 0 0 0 .5 1.054C9.511 5.422 7.996 8 7.996 8l3.41.023.801-1.117c.379.032.781.024 1.172-.078a3.474 3.474 0 0 0 2.496-4.234 3.653 3.653 0 0 0-.504-1.055l-1.36 2.305a.987.987 0 0 1-1.355.355l-.875-.508a.974.974 0 0 1-.355-1.347L12.789.035c-.098-.004-.195-.012-.289-.012zM3.625.715c-.012 0-.02 0-.027.004-.23.047-.446.133-.657.219-.02.625.086 1.44-.156 1.656-.242.21-1.039.035-1.652-.031a3.418 3.418 0 0 0-.313.75c.477.394 1.137.84 1.153 1.156.015.32-.625.804-1.059 1.25.102.258.25.492.406.718.606-.125 1.36-.375 1.621-.187.262.188.262 1.004.344 1.625.246.074.508.105.778.125.28-.555.566-1.32.875-1.406.316-.09.96.457 1.5.781.214-.152.41-.336.59-.531-.255-.574-.72-1.293-.59-1.594.125-.3.968-.469 1.558-.688.004-.074.031-.144.031-.218 0-.192-.035-.38-.062-.563-.606-.16-1.465-.242-1.621-.531-.16-.29.238-1.063.433-1.656-.199-.18-.418-.336-.652-.469-.504.375-1.086.996-1.406.938-.317-.055-.66-.82-.996-1.344a.41.41 0 0 1-.098-.004zm.594 1.879a1.688 1.688 0 0 1 0 3.375c-.93 0-1.684-.754-1.684-1.688S3.29 2.594 4.22 2.594zm8.62 6.332A.734.734 0 0 0 12.48 9H3.43c-.246-.105-.746-.047-.965.18l-2.16 2.113c-.192.176-.301.484-.305.707-.055.887 1 1.32 1.637.793L3 11.461 3.004 15c0 .57.457 1 .996 1h7.992c.524 0 .996-.445.996-.938l-.004-3.601 1.336 1.309c.637.527 1.688.093 1.637-.793-.004-.223-.113-.532-.3-.704l-2.165-2.117c-.144-.152-.418-.226-.652-.23zm0 0" fill="currentColor"/></symbol><symbol viewBox="0 0 16 16" id="other" xmlns="http://www.w3.org/2000/svg"><path d="M12.5.023a3.378 3.378 0 0 0-.883.094C9.75.605 8.633 2.5 9.121 4.352a3.5 3.5 0 0 0 .5 1.054C9.511 5.422 7.996 8 7.996 8l3.41.023.801-1.117c.379.032.781.024 1.172-.078a3.474 3.474 0 0 0 2.496-4.234 3.653 3.653 0 0 0-.504-1.055l-1.36 2.305a.987.987 0 0 1-1.355.355l-.875-.508a.974.974 0 0 1-.355-1.347L12.789.035c-.098-.004-.195-.012-.289-.012zM3.625.715c-.012 0-.02 0-.027.004-.23.047-.446.133-.657.219-.02.625.086 1.44-.156 1.656-.242.21-1.039.035-1.652-.031a3.418 3.418 0 0 0-.313.75c.477.394 1.137.84 1.153 1.156.015.32-.625.804-1.059 1.25.102.258.25.492.406.718.606-.125 1.36-.375 1.621-.187.262.188.262 1.004.344 1.625.246.074.508.105.778.125.28-.555.566-1.32.875-1.406.316-.09.96.457 1.5.781.214-.152.41-.336.59-.531-.255-.574-.72-1.293-.59-1.594.125-.3.968-.469 1.558-.688.004-.074.031-.144.031-.218 0-.192-.035-.38-.062-.563-.606-.16-1.465-.242-1.621-.531-.16-.29.238-1.063.433-1.656-.199-.18-.418-.336-.652-.469-.504.375-1.086.996-1.406.938-.317-.055-.66-.82-.996-1.344a.41.41 0 0 1-.098-.004zm.594 1.879a1.688 1.688 0 0 1 0 3.375c-.93 0-1.684-.754-1.684-1.688S3.29 2.594 4.22 2.594zm8.62 6.332A.734.734 0 0 0 12.48 9H3.43c-.246-.105-.746-.047-.965.18l-2.16 2.113c-.192.176-.301.484-.305.707-.055.887 1 1.32 1.637.793L3 11.461 3.004 15c0 .57.457 1 .996 1h7.992c.524 0 .996-.445.996-.938l-.004-3.601 1.336 1.309c.637.527 1.688.093 1.637-.793-.004-.223-.113-.532-.3-.704l-2.165-2.117c-.144-.152-.418-.226-.652-.23zm0 0" fill="currentColor"/></symbol><symbol viewBox="0 0 64 64" xml:space="preserve" id="phone" xmlns="http://www.w3.org/2000/svg"><g fill="currentColor"><path d="M48 0H16c-2.211 0-4 1.789-4 4v56c0 2.211 1.789 4 4 4h32c2.211 0 4-1.789 4-4V4c0-2.211-1.789-4-4-4zm2 60a2 2 0 0 1-2 2H16a2 2 0 0 1-2-2v-8h36v8zm0-10H14V10h36v40zm0-42H14V4a2 2 0 0 1 2-2h32a2 2 0 0 1 2 2v4z"/><path d="M32 60c1.658 0 3-1.342 3-3s-1.342-3-3-3-3 1.342-3 3 1.342 3 3 3zm0-4a1 1 0 1 1 0 2 1 1 0 1 1 0-2zM33 4h-6a1 1 0 1 0 0 2h6a1 1 0 1 0 0-2z"/><circle cx="37" cy="5" r="1"/></g></symbol><symbol viewBox="0 0 64 64" xml:space="preserve" id="phone" xmlns="http://www.w3.org/2000/svg"><g fill="currentColor"><path d="M48 0H16c-2.211 0-4 1.789-4 4v56c0 2.211 1.789 4 4 4h32c2.211 0 4-1.789 4-4V4c0-2.211-1.789-4-4-4zm2 60a2 2 0 0 1-2 2H16a2 2 0 0 1-2-2v-8h36v8zm0-10H14V10h36v40zm0-42H14V4a2 2 0 0 1 2-2h32a2 2 0 0 1 2 2v4z"/><path d="M32 60c1.658 0 3-1.342 3-3s-1.342-3-3-3-3 1.342-3 3 1.342 3 3 3zm0-4a1 1 0 1 1 0 2 1 1 0 1 1 0-2zM33 4h-6a1 1 0 1 0 0 2h6a1 1 0 1 0 0-2z"/><circle cx="37" cy="5" r="1"/></g></symbol></svg>